<?xml version="1.0" standalone="no"?><!DOCTYPE svg PUBLIC "-//W3C//DTD SVG 1.1//EN" "http://www.w3.org/Graphics/SVG/1.1/DTD/svg11.dtd"><svg t="1656293586872" class="icon" viewBox="0 0 1024 1024" version="1.1" xmlns="http://www.w3.org/2000/svg" p-id="8038" xmlns:xlink="http://www.w3.org/1999/xlink" width="200" height="200"><defs><style type="text/css"></style></defs><path d="M690.414971 471.428979c-5.714142 1.717108-9.81146 5.200442-12.31242 10.472516-2.158153 4.954849-3.678786 8.217149-4.609994 9.785877-0.61296 0.883113-1.079588 1.518586-1.396813 1.814322l-16.678868-45.567825c0-0.931209 0.122797-2.01182 0.442068-3.2623 0.63752-2.477424 0.932232-5.420453 0.932232-8.853645 0-4.022617-1.766226-7.971555-5.322216-11.845793-3.557012-3.89982-8.879228-4.881171-16.013719-3.016707-3.680832 0.933255-6.623861 2.623757-8.779967 5.101181-2.159176 2.501984-4.047176 6.205329-5.566786 11.184737-0.613984 1.225921-1.570775 4.022617-2.795673 8.362458-1.226944 4.340865-2.845815 9.68764-4.855588 16.064884-2.01182 6.328126-4.195555 13.340843-6.500041 20.918425-2.306532 7.603165-4.561899 15.280008-6.721075 23.030529-5.565762 18.295692-11.746532 38.60218-18.539238 60.968583-5.250584-44.046169-9.908674-83.925435-13.932314-119.583562-1.838881-15.20633-3.604084-30.166043-5.321192-44.883233-1.691525-14.764262-2.304486-28.350698-4.855588-40.270169-3.925403-18.418488-5.100158-45.373397-30.141484-45.373397-17.241686 0-34.850739 63.766302-32.913621 58.174957-3.409656 9.762341-6.807033 19.768229-10.202363 30.019711-8.04421 23.887037-17.303085 50.547233-27.824719 80.026638l-20.393469-56.30947c-2.489704-5.567809-6.192026-9.222035-11.135618-10.939143-4.940522-1.691525-10.508331 1.326205-16.689101 9.075703-3.090385 3.727904-6.414083 7.67582-9.970072 11.871375-3.555989 4.193509-7.02602 8.31334-10.434653 12.335956-3.396353 4.021593-6.634094 7.602142-9.737782 10.692526l-7.405667 7.455809c-4.022617 3.385097-8.116865 5.737678-12.286838 6.965645-4.182252 1.249457-9.664104 1.863441-16.457834 1.863441l-48.952922 0 0 36.297694c7.125281 0 37.045731-0.148379 42.918485-0.490164 5.248537 0 10.423397-0.050142 15.536858-0.195451 5.089925-0.196475 9.184173-0.098237 12.287861 0.195451 5.861498 0.636496 10.963703-0.147356 15.292288-2.306532 4.327562-2.158153 8.963139-6.228865 13.916964-12.115945 2.465145-2.795673 4.930289-5.641487 7.419993-8.583492 2.465145-2.944052 4.78191-5.666046 6.940063-8.141424 2.477424-2.796696 4.795213-5.594415 6.965645-8.389064 3.715625 10.546194 7.261381 20.161179 10.655687 28.840862 2.785439 7.455809 5.409197 14.715143 7.886621 21.878287 2.464121 7.160073 4.167926 11.968589 5.101181 14.420431 1.531889 4.954849 3.703345 9.369392 6.486738 13.244652 2.783393 3.924379 6.966669 5.836939 12.519128 5.836939 5.566786 0.294712 9.650801-1.226944 12.287861-4.660136 2.623757-3.434216 4.709255-7.111978 6.253424-11.134595l2.783393-8.387018c1.544169-4.660136 3.483334-10.398838 5.801123-17.217127s4.940522-14.420431 7.884574-22.808472c2.929726-8.387018 5.801123-16.899902 8.571213-25.604144 6.804986-20.159132 14.531971-42.945091 23.176862-68.378343 4.635577 45.593408 8.65717 86.84595 12.054547 123.756605 1.556449 15.842827 3.004427 31.343869 4.389984 46.549176 1.423419 15.157211 2.720971 28.989241 3.948939 41.399899 1.373277 13.536294 5.664 53.562916 30.189579 53.562916 19.964704-0.832971 23.030529-26.63359 33.797757-61.461817 2.794649-9.025561 5.564739-18.147312 8.337899-27.468608 6.499018-21.728884 13.757329-45.421492 21.826098-71.171969 2.7486 7.40669 5.51869 14.420431 8.337899 20.895913 2.159176 5.591345 4.317329 11.134595 6.475482 16.529465 2.158153 5.445012 3.702322 9.223059 4.609994 11.380188 0.956791 2.206248 2.720971 4.071735 5.348821 5.64251 2.622734 1.518586 5.418406 2.353604 8.335852 2.499937 2.943029 0.195451 5.812379-0.342808 8.585539-1.61887 2.792603-1.225921 4.805446-3.678786 6.033413-7.40669 2.50096-7.454786 5.249561-14.764262 8.362458-21.877263 3.065825-7.161097 5.249561-11.966543 6.475482-14.420431 1.544169-2.50096 4.168949-5.053086 7.871271-7.700379 3.727904-2.601244 7.724938-3.777023 12.066827-3.482311 0 0 23.49511-0.442068 41.055045-0.442068l0-35.366486-44.754297 0C715.749986 469.810109 698.361967 469.075375 690.414971 471.428979zM664.761708 176.976714c-50.399877 0-99.058087 18.223037-137.316435 50.817386-38.272675-32.594349-86.918605-50.817386-137.343041-50.817386-118.137631 0-214.253712 98.003058-214.253712 218.47178 0 57.243749 16.272615 113.505124 48.364521 167.263491 25.40767 42.576701 60.895929 83.731006 105.458867 122.383328 49.467645 42.87039 111.13617 83.140559 173.688831 113.453958 0.918929 0.443092 1.582031 0.786922 1.973958 0.933255 6.818289 3.482311 14.45727 5.345752 22.110577 5.345752 7.626701 0 15.278985-1.862417 22.095227-5.345752 0.39295-0.147356 1.056052-0.490164 1.963725-0.933255 62.540382-30.3134 124.196627-70.583568 173.665295-113.453958 44.563962-38.604226 80.074733-79.805604 105.506962-122.333186 32.080649-53.759391 48.364521-110.069885 48.364521-167.313633C879.039979 274.980795 782.924921 176.976714 664.761708 176.976714zM790.332634 539.021423c-22.906709 38.35761-55.206346 75.685773-95.993285 111.051235-46.451962 40.22105-104.477516 78.136591-163.401534 106.685811l-1.175779 0.587378-0.196475 0.099261-2.097778 0.342808-0.723477 0.342808-0.905626-0.442068-0.294712-0.147356-1.619894-0.784876c-58.885132-28.500101-116.925013-66.413596-163.41279-106.685811-40.834011-35.415604-73.121368-72.791863-95.967702-111.099331-27.750017-46.451962-41.814338-94.742804-41.814338-143.524834 0-94.840018 75.071789-171.972746 167.374008-171.972746 38.872333 0 76.812433 14.077623 106.819864 39.585577l30.53341 25.996071 30.521131-25.996071c29.996175-25.532513 67.88818-39.585577 106.785072-39.585577 92.289939 0 167.385265 77.132728 167.385265 171.972746C832.147996 444.255083 818.095955 492.572532 790.332634 539.021423z" p-id="8039"></path></svg>